# Motion Analysis HTR (source:MACFileLib v1.10)
[Header]
# KeyWord<space>Value<CR>
FileType htr
DataType HTRS
FileVersion 1
NumSegments 39
NumFrames 4
DataFrameRate 30
EulerRotationOrder ZYX
CalibrationUnits mm
RotationUnits Degrees
GlobalAxisofGravity Y
BoneLengthAxis Y
ScaleFactor 1.00
[SegmentNames&Hierarchy]
# ObjectName<tab>ParentObjectName<CR>
Root	GLOBAL
Spine1	Root
Spine2	Spine1
Neck	Spine2
Head	Neck
Shoulder.L	Spine2
UpArm.L	Shoulder.L
LowArm.L	UpArm.L
Hand.L	LowArm.L
Mid1.L	Hand.L
Mid2.L	Mid1.L
Rin1.L	Hand.L
Rin2.L	Rin1.L
Pin1.L	Hand.L
Pin2.L	Pin1.L
Ind1.L	Hand.L
Ind2.L	Ind1.L
Thu1.L	Hand.L
Thu2.L	Thu1.L
Shoulder.R.	Spine2
UpArm.R.	Shoulder.R.
LowArm.R.	UpArm.R.
Hand.R.	LowArm.R.
Mid1.R	Hand.R.
Mid2.R	Mid1.R
Rin1.R	Hand.R.
Rin2.R	Rin1.R
Pin1.R	Hand.R.
Pin2.R	Pin1.R
Ind1.R.	Hand.R.
Ind2.R.	Ind1.R.
Thu1.R.	Hand.R.
Thu2.R.	Thu1.R.
UpLeg.L	Root
LowLeg.L	UpLeg.L
Foot.L	LowLeg.L
UpLeg.R.	Root
LowLeg.R.	UpLeg.R.
Foot.R.	LowLeg.R.
[BasePosition]
# ObjectName<tab>Tx<tab>Ty<tab>Tz<tab>Rx<tab>Ry<tab>Rz<tab>BoneLength<CR>
Root	0.000000	30235.292665	-0.004026	-90.000000	-89.999997	0.000000	312.175059
Spine1	0.000000	0.000000	122.062207	0.019032	-1.455481	-0.016849	3.956297
Spine2	-0.000002	0.000000	198.604268	-0.000000	4.493006	-0.000000	2.586962
Neck	0.000000	-0.000000	247.007825	0.297491	5.478449	0.093257	3.162327
Head	-0.000015	-0.000000	104.775290	-0.175874	-4.060744	-0.705126	1.361036
Shoulder.L	41.010071	27.800332	201.741797	-81.536759	5.008627	15.988888	1.460144
UpArm.L	0.117466	13.316634	134.567362	-82.518406	12.487283	-11.850128	3.412631
LowArm.L	0.000000	0.000000	262.668825	-4.150096	24.611435	0.862810	1.706381
Hand.L	-0.000030	-0.000089	256.182086	1.251665	-2.900481	93.083380	2.469438
Mid1.L	-0.543952	-2.746105	82.554371	5.870870	13.914796	-4.286848	0.442826
Mid2.L	-0.000030	-0.000060	34.084145	-2.990212	7.753196	0.200136	0.174624
Rin1.L	0.218332	13.137847	79.132915	-4.664477	24.296854	-14.091150	0.406978
Rin2.L	0.000000	-0.000030	31.325105	2.538030	18.883424	1.472171	0.162051
Pin1.L	1.118183	25.887013	79.463363	-6.502850	31.389724	-18.797695	0.335416
Pin2.L	0.000030	-0.000030	25.816920	3.160667	26.641257	2.067333	0.125631
Ind1.L	-1.472771	-18.929660	80.637515	6.366745	19.096025	-8.675468	0.442753
Ind2.L	0.000000	0.000060	34.078602	-3.536158	12.502640	-0.176700	0.165913
Thu1.L	-3.191650	-22.920072	43.290437	37.523714	-1.101658	9.452499	0.336229
Thu2.L	0.000000	0.000060	25.879371	-3.466530	1.879609	0.849762	0.125995
Shoulder.R.	40.633645	-26.530634	213.580709	81.536759	5.008628	-15.988883	1.460144
UpArm.R.	0.117421	-13.316394	134.567334	84.571290	14.995531	8.690877	3.412630
LowArm.R.	-0.000007	0.000000	262.669114	-0.939266	18.147122	3.030276	1.706382
Hand.R.	-0.000030	0.000030	256.182340	-1.251664	-2.900482	-92.883379	2.469439
Mid1.R	-0.543892	2.746134	82.554317	3.492589	17.927377	10.121872	0.442826
Mid2.R	0.000030	0.000000	34.084138	3.005328	12.040916	0.019132	0.174624
Rin1.R	0.218332	-13.137843	79.132833	7.877480	30.421552	15.621419	0.406978
Rin2.R	0.000000	0.000000	31.324974	-2.683059	25.460207	-1.830241	0.162051
Pin1.R	1.118183	-25.887005	79.463281	4.172920	19.025390	10.727662	0.335416
Pin2.R	0.000030	0.000000	25.816910	-2.923828	13.562034	-1.238519	0.125631
Ind1.R.	-1.472711	18.929655	80.637492	5.591351	22.601217	12.022139	0.442753
Ind2.R.	-0.000015	-0.000030	34.078529	3.589268	17.083385	0.564650	0.165912
Thu1.R.	-3.191589	22.920036	43.290424	-35.951129	-3.697876	-10.453265	0.336229
Thu2.R.	0.000119	-0.000060	25.879373	3.463998	0.441911	-1.237030	0.125995
UpLeg.L	0.000000	94.873809	17.299771	174.415787	24.182955	176.946753	4.473357
LowLeg.L	0.000000	-0.000030	344.311944	7.892541	28.364600	0.995591	2.236683
Foot.L	0.000007	0.000015	381.932733	2.940336	52.017118	174.796942	3.535750
UpLeg.R.	0.000000	-93.110353	17.299771	-177.110361	13.831422	178.777684	4.472163
LowLeg.R.	0.000000	-0.000045	344.302351	-6.889827	33.218978	-6.564881	2.236052
Foot.R.	-0.000007	0.000007	381.826393	14.449929	65.920805	-144.561253	3.535786
[Root]
# Tx<tab>Ty<tab>Tz<tab>Rx<tab>Ry<tab>Rz<tab>BoneScaleFactor<CR>
6	-0.107959	-29465.693420	3.953230	0.000000	-0.000000	0.000000	0.025400
7	-0.141602	-29465.187734	5.281386	0.000000	-0.000000	0.000000	0.025400
8	-0.180461	-29464.603516	6.715223	0.000000	-0.000000	0.000000	0.025400
9	-0.219321	-29464.019394	8.218960	0.000000	-0.000000	0.000000	0.025400
[Spine1]
# Tx<tab>Ty<tab>Tz<tab>Rx<tab>Ry<tab>Rz<tab>BoneScaleFactor<CR>
6	0.000000	0.000000	0.000000	0.000000	-0.000000	0.000000	1.000000
7	0.000000	0.000000	0.000000	0.000000	-0.000000	0.000000	1.000000
8	0.000000	0.000000	0.000000	0.000000	-0.000000	0.000000	1.000000
9	0.000001	0.000000	0.000000	0.000000	-0.000000	0.000000	1.000000
[Spine2]
# Tx<tab>Ty<tab>Tz<tab>Rx<tab>Ry<tab>Rz<tab>BoneScaleFactor<CR>
6	0.000000	-0.000000	0.000000	0.000154	-0.567881	0.000201	1.000000
7	0.000000	0.000000	0.000060	0.000203	-0.758869	0.000264	1.000000
8	-0.000002	0.000000	0.000119	0.000256	-0.965056	0.000333	1.000000
9	0.000000	-0.000000	0.000000	0.000312	-1.181298	0.000408	1.000000
[Neck]
# Tx<tab>Ty<tab>Tz<tab>Rx<tab>Ry<tab>Rz<tab>BoneScaleFactor<CR>
6	0.000000	0.000000	0.000000	0.000000	0.000001	-0.000000	1.000000
7	-0.000004	0.000000	0.000119	-0.000000	-0.000000	-0.000000	1.000000
8	0.000004	0.000000	0.000000	0.000000	0.000002	-0.000000	1.000000
9	0.000000	0.000000	0.000000	0.000000	0.000002	0.000000	1.000000
[Head]
# Tx<tab>Ty<tab>Tz<tab>Rx<tab>Ry<tab>Rz<tab>BoneScaleFactor<CR>
6	-0.000015	0.000000	-0.000010	0.844973	1.425211	0.060884	1.000000
7	-0.000015	0.000001	-0.000119	0.976845	1.647036	0.079078	1.000000
8	-0.000015	0.000001	-0.000010	1.054974	1.778187	0.095790	1.000000
9	0.000000	0.000001	-0.000010	1.081494	1.827526	0.110749	1.000000
[Shoulder.L]
# Tx<tab>Ty<tab>Tz<tab>Rx<tab>Ry<tab>Rz<tab>BoneScaleFactor<CR>
6	0.000004	-0.000006	0.000000	0.000000	0.000003	0.000001	1.000000
7	0.000000	0.000000	0.000119	0.000000	0.000003	0.000001	1.000000
8	-0.000004	-0.000004	0.000119	0.000000	0.000002	0.000000	1.000000
9	-0.000007	-0.000006	0.000000	-0.000000	0.000005	-0.000001	1.000000
[UpArm.L]
# Tx<tab>Ty<tab>Tz<tab>Rx<tab>Ry<tab>Rz<tab>BoneScaleFactor<CR>
6	-0.000000	-0.000003	-0.000041	0.608090	0.031752	0.037202	1.000000
7	-0.000007	-0.000122	-0.000026	0.812603	0.042335	0.049777	1.000000
8	-0.000007	-0.000122	-0.000041	1.033397	0.053719	0.063409	1.000000
9	-0.000000	-0.000003	-0.000011	1.264954	0.065615	0.077772	1.000000
[LowArm.L]
# Tx<tab>Ty<tab>Tz<tab>Rx<tab>Ry<tab>Rz<tab>BoneScaleFactor<CR>
6	0.000007	0.000000	-0.000179	-0.059614	-0.434961	0.113145	1.000000
7	0.000000	0.000000	0.000145	-0.079798	-0.581207	0.151327	1.000000
8	0.000007	0.000060	-0.000060	-0.101821	-0.739077	0.192553	1.000000
9	0.000000	0.000000	0.000051	-0.124776	-0.904640	0.235974	1.000000
[Hand.L]
# Tx<tab>Ty<tab>Tz<tab>Rx<tab>Ry<tab>Rz<tab>BoneScaleFactor<CR>
6	0.000030	0.000060	-0.000025	0.669831	0.990620	1.466097	1.000000
7	0.000030	0.000030	0.000050	0.900960	1.320083	1.962039	1.000000
8	0.000030	0.000000	0.000000	1.153606	1.673527	2.499146	1.000000
9	0.000030	0.000030	0.000099	1.422115	2.041646	3.064343	1.000001
[Mid1.L]
# Tx<tab>Ty<tab>Tz<tab>Rx<tab>Ry<tab>Rz<tab>BoneScaleFactor<CR>
6	0.000000	-0.000029	0.000036	0.539164	2.062138	-1.379543	1.000000
7	0.000000	0.000000	-0.000030	0.709252	2.759118	-1.840124	1.000000
8	-0.000059	0.000001	-0.000062	0.887137	3.513306	-2.335325	1.000000
9	-0.000060	-0.000001	0.000054	1.067487	4.306061	-2.852473	1.000000
[Mid2.L]
# Tx<tab>Ty<tab>Tz<tab>Rx<tab>Ry<tab>Rz<tab>BoneScaleFactor<CR>
6	-0.000030	0.000060	-0.000013	0.000001	2.042845	-0.000001	1.000000
7	0.000000	0.000000	0.000000	0.000003	2.729219	0.000000	1.000000
8	0.000030	0.000060	0.000043	0.000003	3.469926	-0.000000	1.000000
9	-0.000030	0.000060	0.000066	0.000002	4.246459	-0.000000	1.000000
[Rin1.L]
# Tx<tab>Ty<tab>Tz<tab>Rx<tab>Ry<tab>Rz<tab>BoneScaleFactor<CR>
6	-0.000060	-0.000004	0.000037	-0.109865	-0.587081	0.262672	1.000000
7	-0.000060	0.000030	0.000000	-0.147486	-0.784428	0.351247	1.000000
8	-0.000119	-0.000005	-0.000001	-0.188648	-0.997463	0.446929	1.000000
9	-0.000119	-0.000026	0.000023	-0.232260	-1.220840	0.547428	1.000000
[Rin2.L]
# Tx<tab>Ty<tab>Tz<tab>Rx<tab>Ry<tab>Rz<tab>BoneScaleFactor<CR>
6	0.000000	0.000000	-0.000012	0.000001	-0.584898	-0.000000	1.000000
7	0.000015	-0.000000	-0.000057	0.000002	-0.781527	-0.000000	1.000000
8	-0.000015	0.000000	-0.000018	-0.000001	-0.993772	-0.000002	0.999999
9	0.000015	0.000030	0.000006	0.000001	-1.216324	-0.000000	1.000000
[Pin1.L]
# Tx<tab>Ty<tab>Tz<tab>Rx<tab>Ry<tab>Rz<tab>BoneScaleFactor<CR>
6	-0.000000	-0.000008	0.000037	-0.488382	-2.570942	1.106178	1.000000
7	0.000000	0.000000	0.000030	-0.664601	-3.434387	1.483933	1.000000
8	-0.000060	-0.000010	-0.000001	-0.861106	-4.365546	1.895468	1.000000
9	0.000000	0.000008	0.000083	-1.074152	-5.340788	2.331475	1.000000
[Pin2.L]
# Tx<tab>Ty<tab>Tz<tab>Rx<tab>Ry<tab>Rz<tab>BoneScaleFactor<CR>
6	-0.000015	0.000030	-0.000010	0.000000	-2.588305	-0.000001	1.000000
7	0.000015	0.000000	-0.000060	0.000003	-3.457102	0.000001	1.000000
8	-0.000015	-0.000030	-0.000010	-0.000001	-4.394122	-0.000001	1.000000
9	-0.000045	-0.000000	-0.000052	0.000001	-5.375806	-0.000000	1.000000
[Ind1.L]
# Tx<tab>Ty<tab>Tz<tab>Rx<tab>Ry<tab>Rz<tab>BoneScaleFactor<CR>
6	0.000000	0.000006	0.000006	0.459675	1.986073	-1.350540	1.000000
7	0.000000	0.000000	0.000030	0.609982	2.658396	-1.799725	1.000000
8	0.000001	0.000007	-0.000061	0.765320	3.385385	-2.283488	1.000000
9	-0.000060	-0.000006	0.000053	0.919366	4.148564	-2.790169	1.000000
[Ind2.L]
# Tx<tab>Ty<tab>Tz<tab>Rx<tab>Ry<tab>Rz<tab>BoneScaleFactor<CR>
6	0.000030	-0.000060	0.000046	-0.000002	1.963630	-0.000001	1.000000
7	0.000030	-0.000060	0.000003	0.000000	2.625345	-0.000001	1.000000
8	-0.000060	-0.000060	-0.000020	-0.000003	3.340453	-0.000002	0.999999
9	-0.000030	-0.000060	0.000000	-0.000003	4.091259	-0.000002	1.000000
[Thu1.L]
# Tx<tab>Ty<tab>Tz<tab>Rx<tab>Ry<tab>Rz<tab>BoneScaleFactor<CR>
6	0.000001	0.000036	0.000047	-0.000003	-0.000001	0.000001	1.000000
7	0.000000	0.000030	0.000000	-0.000003	-0.000004	-0.000002	1.000000
8	-0.000058	0.000039	-0.000017	-0.000003	-0.000003	-0.000000	1.000000
9	-0.000061	0.000023	-0.000047	-0.000003	-0.000003	0.000001	1.000000
[Thu2.L]
# Tx<tab>Ty<tab>Tz<tab>Rx<tab>Ry<tab>Rz<tab>BoneScaleFactor<CR>
6	0.000060	-0.000000	0.000020	-0.000002	-0.000001	0.000003	1.000000
7	0.000060	0.000000	0.000030	-0.000004	-0.000001	0.000004	1.000000
8	0.000060	-0.000060	-0.000013	0.000001	-0.000002	0.000002	1.000000
9	0.000060	-0.000060	0.000017	-0.000000	0.000000	0.000002	1.000000
[Shoulder.R.]
# Tx<tab>Ty<tab>Tz<tab>Rx<tab>Ry<tab>Rz<tab>BoneScaleFactor<CR>
6	0.000000	0.000000	0.000000	-0.000000	-0.000002	-0.000002	1.000000
7	-0.000004	-0.000004	0.000119	-0.000001	-0.000003	-0.000004	1.000000
8	0.000004	0.000002	0.000000	-0.000001	-0.000003	-0.000004	1.000000
9	-0.000015	0.000000	0.000000	0.000006	0.000001	-0.000003	1.000000
[UpArm.R.]
# Tx<tab>Ty<tab>Tz<tab>Rx<tab>Ry<tab>Rz<tab>BoneScaleFactor<CR>
6	0.000007	-0.000119	0.000000	-0.606445	0.000937	-0.008262	1.000000
7	0.000015	-0.000118	-0.000013	-0.810404	0.001225	-0.011035	1.000000
8	0.000022	-0.000118	0.000002	-1.030594	0.001529	-0.014041	1.000000
9	0.000022	-0.000115	-0.000024	-1.261533	0.001853	-0.017217	1.000000
[LowArm.R.]
# Tx<tab>Ty<tab>Tz<tab>Rx<tab>Ry<tab>Rz<tab>BoneScaleFactor<CR>
6	0.000004	0.000000	-0.000025	-0.000518	0.691111	0.322803	1.000000
7	0.000005	0.000000	-0.000051	0.000216	0.923553	0.431383	1.000000
8	0.000003	0.000060	0.000034	0.001465	1.174487	0.548615	1.000000
9	0.000005	0.000000	-0.000136	0.003282	1.437656	0.671582	1.000000
[Hand.R.]
# Tx<tab>Ty<tab>Tz<tab>Rx<tab>Ry<tab>Rz<tab>BoneScaleFactor<CR>
6	0.000000	0.000030	-0.000025	-0.907144	0.994974	-2.032771	1.000000
7	0.000000	-0.000030	-0.000084	-1.222532	1.343109	-2.720201	1.000000
8	0.000000	0.000030	-0.000050	-1.565163	1.692603	-3.465223	1.000000
9	-0.000030	0.000030	-0.000015	-1.926717	2.033900	-4.249662	0.999999
[Mid1.R]
# Tx<tab>Ty<tab>Tz<tab>Rx<tab>Ry<tab>Rz<tab>BoneScaleFactor<CR>
6	-0.000000	0.000030	0.000008	-0.187824	1.772222	0.741539	1.000000
7	-0.000000	0.000030	0.000008	-0.245726	2.369089	0.989965	1.000000
8	-0.000000	0.000000	0.000008	-0.305554	3.013822	1.257602	1.000000
9	-0.000059	-0.000001	-0.000084	-0.365401	3.690323	1.537698	1.000000
[Mid2.R]
# Tx<tab>Ty<tab>Tz<tab>Rx<tab>Ry<tab>Rz<tab>BoneScaleFactor<CR>
6	-0.000030	0.000000	0.000000	-0.000002	1.769744	0.000000	1.000000
7	0.000000	-0.000030	0.000000	-0.000003	2.365627	-0.000000	1.000000
8	-0.000030	-0.000030	0.000000	-0.000003	3.009256	-0.000000	1.000000
9	-0.000000	0.000000	-0.000073	-0.000005	3.684625	-0.000001	1.000000
[Rin1.R]
# Tx<tab>Ty<tab>Tz<tab>Rx<tab>Ry<tab>Rz<tab>BoneScaleFactor<CR>
6	0.000000	-0.000001	0.000008	0.204233	-1.506383	-0.525976	1.000000
7	-0.000060	0.000029	0.000008	0.276185	-2.012732	-0.704184	1.000000
8	0.000000	-0.000001	0.000008	0.355563	-2.559189	-0.897417	1.000000
9	-0.000060	0.000004	-0.000023	0.440664	-3.132059	-1.101068	1.000000
[Rin2.R]
# Tx<tab>Ty<tab>Tz<tab>Rx<tab>Ry<tab>Rz<tab>BoneScaleFactor<CR>
6	0.000000	0.000000	0.000060	-0.000000	-1.512267	-0.000000	1.000000
7	-0.000030	0.000000	-0.000057	0.000001	-2.020587	-0.000000	1.000000
8	-0.000030	-0.000030	0.000000	0.000000	-2.569198	0.000000	1.000000
9	0.000000	0.000030	-0.000069	-0.000001	-3.144373	-0.000000	1.000000
[Pin1.R]
# Tx<tab>Ty<tab>Tz<tab>Rx<tab>Ry<tab>Rz<tab>BoneScaleFactor<CR>
6	0.000000	0.000027	0.000008	-0.198379	1.894713	0.768740	1.000000
7	0.000000	0.000027	0.000008	-0.259267	2.532902	1.026204	1.000000
8	0.000000	-0.000003	-0.000052	-0.322034	3.222273	1.303542	1.000000
9	-0.000060	0.000037	-0.000083	-0.384649	3.945641	1.593755	1.000000
[Pin2.R]
# Tx<tab>Ty<tab>Tz<tab>Rx<tab>Ry<tab>Rz<tab>BoneScaleFactor<CR>
6	-0.000030	0.000000	-0.000003	-0.000001	1.892999	-0.000000	1.000000
7	-0.000030	-0.000030	0.000000	0.000002	2.530529	0.000000	1.000000
8	-0.000000	-0.000030	-0.000003	0.000003	3.219225	0.000000	1.000000
9	0.000030	-0.000030	-0.000072	0.000003	3.941962	0.000000	1.000000
[Ind1.R.]
# Tx<tab>Ty<tab>Tz<tab>Rx<tab>Ry<tab>Rz<tab>BoneScaleFactor<CR>
6	-0.000060	0.000002	0.000008	-0.137166	1.181635	0.447709	1.000000
7	-0.000000	0.000032	0.000008	-0.181173	1.579354	0.597740	1.000000
8	-0.000000	0.000002	-0.000052	-0.227601	2.008880	0.759394	1.000000
9	0.000000	-0.000006	-0.000023	-0.275123	2.459484	0.928569	1.000000
[Ind2.R.]
# Tx<tab>Ty<tab>Tz<tab>Rx<tab>Ry<tab>Rz<tab>BoneScaleFactor<CR>
6	0.000030	0.000030	0.000000	-0.000001	1.181686	0.000000	1.000000
7	0.000015	0.000060	0.000007	0.000001	1.579404	0.000001	1.000000
8	0.000015	0.000030	0.000000	0.000000	2.008909	0.000001	1.000000
9	0.000015	0.000030	-0.000076	0.000000	2.459517	0.000001	1.000000
[Thu1.R.]
# Tx<tab>Ty<tab>Tz<tab>Rx<tab>Ry<tab>Rz<tab>BoneScaleFactor<CR>
6	-0.000060	0.000002	0.000004	0.000000	0.000001	-0.000001	1.000000
7	-0.000000	0.000032	0.000004	-0.000000	0.000002	0.000002	1.000000
8	-0.000000	0.000002	0.000004	-0.000000	0.000000	0.000001	1.000000
9	0.000001	-0.000007	-0.000013	0.000000	0.000000	-0.000002	1.000000
[Thu2.R.]
# Tx<tab>Ty<tab>Tz<tab>Rx<tab>Ry<tab>Rz<tab>BoneScaleFactor<CR>
6	-0.000119	0.000060	0.000030	0.000000	-0.000001	0.000001	1.000000
7	0.000000	0.000119	0.000060	-0.000001	0.000000	0.000001	1.000000
8	-0.000119	0.000030	0.000030	0.000003	-0.000001	0.000002	1.000000
9	-0.000060	0.000089	-0.000013	0.000000	-0.000000	0.000001	0.999999
[UpLeg.L]
# Tx<tab>Ty<tab>Tz<tab>Rx<tab>Ry<tab>Rz<tab>BoneScaleFactor<CR>
6	0.000000	0.000007	0.000000	0.134604	0.641625	0.016280	1.000000
7	0.000000	0.000007	0.000000	0.179980	0.845106	0.021909	1.000000
8	0.000000	0.000000	0.000000	0.229041	1.067025	0.028142	1.000000
9	0.000001	0.000007	0.000000	0.280657	1.309974	0.034896	1.000000
[LowLeg.L]
# Tx<tab>Ty<tab>Tz<tab>Rx<tab>Ry<tab>Rz<tab>BoneScaleFactor<CR>
6	0.000000	-0.000000	0.000093	-0.227791	-0.551715	-0.017918	1.000000
7	0.000000	0.000000	0.000089	-0.304566	-0.739109	-0.023438	1.000000
8	0.000000	0.000015	0.000030	-0.387551	-0.944720	-0.028904	1.000000
9	0.000030	0.000000	0.000060	-0.474825	-1.164451	-0.034069	1.000000
[Foot.L]
# Tx<tab>Ty<tab>Tz<tab>Rx<tab>Ry<tab>Rz<tab>BoneScaleFactor<CR>
6	-0.000007	-0.000015	0.000000	-0.072233	0.078131	-0.091965	1.000000
7	-0.000015	-0.000015	-0.000097	-0.096487	0.088517	-0.122873	1.000000
8	-0.000007	-0.000015	-0.000097	-0.122562	0.099950	-0.156119	1.000000
9	0.000000	-0.000007	-0.000060	-0.149810	0.112591	-0.190880	1.000000
[UpLeg.R.]
# Tx<tab>Ty<tab>Tz<tab>Rx<tab>Ry<tab>Rz<tab>BoneScaleFactor<CR>
6	0.000000	0.000000	0.000000	-0.080113	0.849568	-0.004030	1.000000
7	0.000000	0.000000	0.000000	-0.107866	1.140131	-0.005524	1.000000
8	0.000000	0.000000	0.000000	-0.138294	1.456458	-0.007242	1.000000
9	0.000001	0.000007	0.000000	-0.170747	1.791136	-0.009175	1.000000
[LowLeg.R.]
# Tx<tab>Ty<tab>Tz<tab>Rx<tab>Ry<tab>Rz<tab>BoneScaleFactor<CR>
6	0.000000	0.000015	0.000033	0.202464	-0.999111	0.002017	1.000000
7	-0.000015	0.000015	-0.000030	0.272036	-1.345057	0.001790	1.000000
8	0.000000	0.000030	0.000030	0.347961	-1.723853	0.000961	1.000000
9	0.000000	0.000015	-0.000004	0.428512	-2.127101	-0.000593	1.000000
[Foot.R.]
# Tx<tab>Ty<tab>Tz<tab>Rx<tab>Ry<tab>Rz<tab>BoneScaleFactor<CR>
6	0.000015	-0.000000	-0.000940	-0.002159	-0.173525	-0.005612	0.999998
7	0.000007	-0.000007	-0.001080	-0.002519	-0.233326	-0.006544	0.999997
8	0.000000	-0.000007	-0.001029	-0.002879	-0.303434	-0.007477	0.999997
9	0.000007	-0.000007	-0.001080	-0.003239	-0.376848	-0.008407	0.999997
[EndOfFile]
